<svg width="213" height="57" viewBox="0 0 213 57" fill="none" xmlns="http://www.w3.org/2000/svg">
<path fill-rule="evenodd" clip-rule="evenodd" d="M46.9279 12.2358C46.9279 5.47818 41.4497 0 34.6921 0H21.0967C14.339 0 8.86084 5.47818 8.86084 12.2358C8.86084 18.9935 14.339 24.4717 21.0967 24.4717H34.6921C37.1365 24.4717 39.4136 23.7549 41.3245 22.52C43.0694 24.0984 45.3637 25.1369 47.9998 24.1969C47.4607 23.7438 46.0616 22.0255 44.9553 18.9005C46.203 16.983 46.9279 14.6941 46.9279 12.2358ZM3.95085 41.5091C3.95085 33.2497 10.6464 26.5542 18.9058 26.5542H33.045C41.3044 26.5542 47.9999 33.2497 47.9999 41.5091C47.9999 49.7685 41.3044 56.4641 33.045 56.4641H18.9058C14.7259 56.4641 10.9465 54.7492 8.23284 51.9847C6.42557 54.8485 3.51688 57.5854 0 56.0718C0.761045 55.2997 3.23679 51.4834 4.182 44.1428C4.0301 43.2878 3.95085 42.4077 3.95085 41.5091Z" fill="url(#paint0_linear_307_277)"/>
<path fill-rule="evenodd" clip-rule="evenodd" d="M67.752 42.1206C69.3076 45.4165 72.4717 47.4204 76.6113 47.4204C83.7305 47.4204 88.0811 41.9361 88.0811 32.8394C88.0811 23.7163 83.7041 18.2583 76.585 18.2583C72.5508 18.2583 69.4131 20.2622 67.8574 23.6109H67.6992V8.92435H60V46.9722H67.5938V42.1206H67.752ZM67.6729 32.8394C67.6729 27.7769 70.2305 24.4283 73.9482 24.4283C77.7715 24.4283 80.1973 27.6978 80.1973 32.8394C80.1973 38.0074 77.7979 41.2242 73.9482 41.2242C70.2041 41.2242 67.6729 37.9546 67.6729 32.8394ZM151.603 12.1939H159.302V18.7066H164.522V24.5074H159.302V38.0337C159.302 40.1958 160.356 41.2242 162.624 41.2242C163.31 41.2242 164.021 41.1714 164.496 41.0923V46.7613C163.705 46.9458 162.387 47.0777 160.831 47.0777C154.187 47.0777 151.603 44.8628 151.603 39.3521V24.5074H147.621V18.7066H151.603V12.1939ZM173.858 29.8863C174.122 26.3531 176.547 23.7954 179.922 23.7954C183.35 23.7954 185.697 26.274 185.855 29.8863H173.858ZM193.027 38.3238H185.96C185.249 40.4859 183.086 41.8833 180.265 41.8833C176.336 41.8833 173.779 39.1148 173.779 35.0806V34.606H193.264V32.2593C193.264 23.6636 188.07 18.1001 179.843 18.1001C171.485 18.1001 166.211 23.9536 166.211 32.9712C166.211 42.0152 171.432 47.5786 180.133 47.5786C187.121 47.5786 192.183 43.8609 193.027 38.3238ZM203.601 18.7066H196.166V46.9722H203.865V31.1783C203.865 27.1968 206.08 24.8765 209.876 24.8765C210.984 24.8765 212.039 25.0611 212.671 25.3247V18.5484C212.144 18.3902 211.379 18.2583 210.483 18.2583C207.161 18.2583 204.761 20.2095 203.759 23.7954H203.601V18.7066ZM119.513 18.7066V46.9722H127.212V30.7564C127.212 27.0913 129.4 24.5601 132.854 24.5601C136.309 24.5601 138.049 26.6695 138.049 30.3609V46.9722H145.748V28.7525C145.748 22.1343 142.215 18.1792 135.939 18.1792C131.589 18.1792 128.609 20.2359 127.106 23.7427H126.948V18.7066H119.513ZM101.925 41.857C105.273 41.857 108.042 39.6685 108.042 36.6099V34.5533L102.083 34.9224C99.209 35.1333 97.5742 36.4253 97.5742 38.4292C97.5742 40.5386 99.3145 41.857 101.925 41.857ZM99.3936 47.4204C94.0146 47.4204 89.9277 43.94 89.9277 38.8511C89.9277 33.7095 93.8828 30.73 100.923 30.3081L108.042 29.8863V28.0142C108.042 25.3775 106.196 23.8482 103.296 23.8482C100.422 23.8482 98.6025 25.272 98.2334 27.355H91.1934C91.4834 21.8706 96.1504 18.1001 103.639 18.1001C110.89 18.1001 115.609 21.8443 115.609 27.5396V46.9722H108.174V42.648H108.016C106.434 45.6538 102.927 47.4204 99.3936 47.4204Z" fill="url(#paint1_linear_307_277)"/>
<defs>
<linearGradient id="paint0_linear_307_277" x1="-5.99999" y1="14.1258" x2="53.0576" y2="47.5725" gradientUnits="userSpaceOnUse">
<stop stop-color="#1861FF"/>
<stop offset="0.295673" stop-color="#8C48FF"/>
<stop offset="0.591346" stop-color="#995DFF"/>
<stop offset="1" stop-color="#1861FF"/>
</linearGradient>
<linearGradient id="paint1_linear_307_277" x1="37.6855" y1="14.4722" x2="91.3182" y2="118.427" gradientUnits="userSpaceOnUse">
<stop stop-color="#3662F4"/>
<stop offset="0.663462" stop-color="#7661E7"/>
<stop offset="1" stop-color="#3662F4"/>
</linearGradient>
</defs>
</svg>
